<svg width="113" height="29" viewBox="0 0 113 29" fill="none" xmlns="http://www.w3.org/2000/svg">
<mask id="path-1-inside-1_3_5" fill="white">
<path d="M49.6901 28.82V18.32H52.1201V28.82H49.6901Z"/>
<path d="M54.6119 28.82V18.32H57.0419V26.84H62.3069V28.82H54.6119Z"/>
<path d="M63.6647 28.82V18.32H66.0947V26.84H71.3597V28.82H63.6647Z"/>
<path d="M108.49 29C107.65 29 106.845 28.89 106.075 28.67C105.305 28.44 104.685 28.145 104.215 27.785L105.04 25.955C105.49 26.275 106.02 26.54 106.63 26.75C107.25 26.95 107.875 27.05 108.505 27.05C108.985 27.05 109.37 27.005 109.66 26.915C109.96 26.815 110.18 26.68 110.32 26.51C110.46 26.34 110.53 26.145 110.53 25.925C110.53 25.645 110.42 25.425 110.2 25.265C109.98 25.095 109.69 24.96 109.33 24.86C108.97 24.75 108.57 24.65 108.13 24.56C107.7 24.46 107.265 24.34 106.825 24.2C106.395 24.06 106 23.88 105.64 23.66C105.28 23.44 104.985 23.15 104.755 22.79C104.535 22.43 104.425 21.97 104.425 21.41C104.425 20.81 104.585 20.265 104.905 19.775C105.235 19.275 105.725 18.88 106.375 18.59C107.035 18.29 107.86 18.14 108.85 18.14C109.51 18.14 110.16 18.22 110.8 18.38C111.44 18.53 112.005 18.76 112.495 19.07L111.745 20.915C111.255 20.635 110.765 20.43 110.275 20.3C109.785 20.16 109.305 20.09 108.835 20.09C108.365 20.09 107.98 20.145 107.68 20.255C107.38 20.365 107.165 20.51 107.035 20.69C106.905 20.86 106.84 21.06 106.84 21.29C106.84 21.56 106.95 21.78 107.17 21.95C107.39 22.11 107.68 22.24 108.04 22.34C108.4 22.44 108.795 22.54 109.225 22.64C109.665 22.74 110.1 22.855 110.53 22.985C110.97 23.115 111.37 23.29 111.73 23.51C112.09 23.73 112.38 24.02 112.6 24.38C112.83 24.74 112.945 25.195 112.945 25.745C112.945 26.335 112.78 26.875 112.45 27.365C112.12 27.855 111.625 28.25 110.965 28.55C110.315 28.85 109.49 29 108.49 29Z"/>
<path fill-rule="evenodd" clip-rule="evenodd" d="M31.0372 0H22.255L22.2585 0.00678698L26.611 8.50875L26.6142 8.51639L35.2527 29H43.6836L31.0372 0Z"/>
<path fill-rule="evenodd" clip-rule="evenodd" d="M102.605 22.55H84.0973V20.27H103.25V18.32H81.6823V28.82H103.445V26.87H84.0973V24.44H102.605V22.55ZM84.0973 24.44V22.55H83.9173V24.44H84.0973Z"/>
<path d="M83.9173 22.55V24.44H84.0973V22.55H83.9173Z"/>
<path d="M9.54486 29H17.9758L26.6142 8.51639L26.611 8.50875L22.2585 0.00678698L9.54486 29Z"/>
<path d="M3.77243 28.9075C2.96765 28.9075 2.27352 28.6393 1.69005 28.1029C1.12671 27.5466 0.845032 26.8413 0.845032 25.9869C0.845032 25.1326 1.12671 24.4472 1.69005 23.9306C2.27352 23.3942 2.96765 23.126 3.77243 23.126C4.59734 23.126 5.29146 23.3942 5.85481 23.9306C6.41816 24.4472 6.69983 25.1326 6.69983 25.9869C6.69983 26.8413 6.41816 27.5466 5.85481 28.1029C5.29146 28.6393 4.59734 28.9075 3.77243 28.9075Z"/>
<path fill-rule="evenodd" clip-rule="evenodd" d="M74.2434 25.0774V28.82H76.6734V25.1023L80.7534 18.32H78.3684L75.5575 22.9812L72.7584 18.32H70.1784L74.2434 25.0774ZM76.2984 24.215L75.5575 22.9812L74.8134 24.215H76.2984Z"/>
<path d="M74.8134 24.215H76.2984L75.5575 22.9812L74.8134 24.215Z"/>
</mask>
<path d="M49.6901 28.82V18.32H52.1201V28.82H49.6901Z" fill="white"/>
<path d="M54.6119 28.82V18.32H57.0419V26.84H62.3069V28.82H54.6119Z" fill="white"/>
<path d="M63.6647 28.82V18.32H66.0947V26.84H71.3597V28.82H63.6647Z" fill="white"/>
<path d="M108.49 29C107.65 29 106.845 28.89 106.075 28.67C105.305 28.44 104.685 28.145 104.215 27.785L105.04 25.955C105.49 26.275 106.02 26.54 106.63 26.75C107.25 26.95 107.875 27.05 108.505 27.05C108.985 27.05 109.37 27.005 109.66 26.915C109.96 26.815 110.18 26.68 110.32 26.51C110.46 26.34 110.53 26.145 110.53 25.925C110.53 25.645 110.42 25.425 110.2 25.265C109.98 25.095 109.69 24.96 109.33 24.86C108.97 24.75 108.57 24.65 108.13 24.56C107.7 24.46 107.265 24.34 106.825 24.2C106.395 24.06 106 23.88 105.64 23.66C105.28 23.44 104.985 23.15 104.755 22.79C104.535 22.43 104.425 21.97 104.425 21.41C104.425 20.81 104.585 20.265 104.905 19.775C105.235 19.275 105.725 18.88 106.375 18.59C107.035 18.29 107.86 18.14 108.85 18.14C109.51 18.14 110.16 18.22 110.8 18.38C111.44 18.53 112.005 18.76 112.495 19.07L111.745 20.915C111.255 20.635 110.765 20.43 110.275 20.3C109.785 20.16 109.305 20.09 108.835 20.09C108.365 20.09 107.98 20.145 107.68 20.255C107.38 20.365 107.165 20.51 107.035 20.69C106.905 20.86 106.84 21.06 106.84 21.29C106.84 21.56 106.95 21.78 107.17 21.95C107.39 22.11 107.68 22.24 108.04 22.34C108.4 22.44 108.795 22.54 109.225 22.64C109.665 22.74 110.1 22.855 110.53 22.985C110.97 23.115 111.37 23.29 111.73 23.51C112.09 23.73 112.38 24.02 112.6 24.38C112.83 24.74 112.945 25.195 112.945 25.745C112.945 26.335 112.78 26.875 112.45 27.365C112.12 27.855 111.625 28.25 110.965 28.55C110.315 28.85 109.49 29 108.49 29Z" fill="white"/>
<path fill-rule="evenodd" clip-rule="evenodd" d="M31.0372 0H22.255L22.2585 0.00678698L26.611 8.50875L26.6142 8.51639L35.2527 29H43.6836L31.0372 0Z" fill="white"/>
<path fill-rule="evenodd" clip-rule="evenodd" d="M102.605 22.55H84.0973V20.27H103.25V18.32H81.6823V28.82H103.445V26.87H84.0973V24.44H102.605V22.55ZM84.0973 24.44V22.55H83.9173V24.44H84.0973Z" fill="white"/>
<path d="M83.9173 22.55V24.44H84.0973V22.55H83.9173Z" fill="white"/>
<path fill-rule="evenodd" clip-rule="evenodd" d="M74.2434 25.0774V28.82H76.6734V25.1023L80.7534 18.32H78.3684L75.5575 22.9812L72.7584 18.32H70.1784L74.2434 25.0774ZM76.2984 24.215L75.5575 22.9812L74.8134 24.215H76.2984Z" fill="white"/>
<path d="M74.8134 24.215H76.2984L75.5575 22.9812L74.8134 24.215Z" fill="white"/>
<path d="M74.2434 24.53L74.7112 24.3534L73.7434 24.53H74.2434ZM74.7984 26L74.37 26.2577L75.2662 25.8234L74.7984 26ZM76.2984 24.215V24.715H77.1819L76.7271 23.9576L76.2984 24.215ZM74.8134 24.215L74.3853 23.9568L73.928 24.715H74.8134V24.215ZM76.1334 26L75.6641 25.8276L76.5619 26.2577L76.1334 26ZM76.6734 24.53H77.1734L76.2041 24.3576L76.6734 24.53ZM83.9173 22.55V22.05H83.4173V22.55H83.9173ZM83.9173 24.44H83.4173V24.94H83.9173V24.44ZM22.2615 0L22.7066 -0.227848L22.2265 -1.16552L21.8036 -0.200758L22.2615 0ZM26.6175 8.50875L27.0782 8.70305L27.1687 8.48833L27.0625 8.2809L26.6175 8.50875ZM24.2222 2.8445V2.3445H23.4687L23.7615 3.03879L24.2222 2.8445ZM28.9998 2.8445L29.4605 3.03879L29.7533 2.3445H28.9998V2.8445ZM84.0973 22.55H84.5973V22.05H84.0973V22.55ZM84.0973 24.44V24.94H84.5973V24.44H84.0973ZM26.6142 8.51639L26.1535 8.7107L26.6142 9.80306L27.0749 8.7107L26.6142 8.51639ZM74.2434 25.0774H73.7434V25.2162L73.815 25.3351L74.2434 25.0774ZM76.6734 25.1023L77.1019 25.3601L77.1734 25.2411V25.1023H76.6734ZM75.5575 22.9812L75.9861 22.7238L75.5584 22.0115L75.1293 22.723L75.5575 22.9812ZM73.7757 24.7066L74.3307 26.1766L75.2662 25.8234L74.7112 24.3534L73.7757 24.7066ZM76.2984 23.715H74.8134V24.715H76.2984V23.715ZM76.6028 26.1724L77.1428 24.7024L76.2041 24.3576L75.6641 25.8276L76.6028 26.1724ZM84.4173 24.44V22.55H83.4173V24.44H84.4173ZM21.8164 0.227848L26.1724 8.7366L27.0625 8.2809L22.7066 -0.227848L21.8164 0.227848ZM24.2222 3.3445H28.9998V2.3445H24.2222V3.3445ZM28.5391 2.65021L26.1503 8.31446L27.0717 8.70304L29.4605 3.03879L28.5391 2.65021ZM27.0717 8.31446L24.683 2.65021L23.7615 3.03879L26.1503 8.70304L27.0717 8.31446ZM84.5973 24.44V22.55H83.5973V24.44H84.5973ZM84.0973 22.05H83.9173V23.05H84.0973V22.05ZM83.9173 24.94H84.0973V23.94H83.9173V24.94ZM21.8006 -0.194008C19.3181 5.46727 17.3809 9.88493 15.4438 14.3026C13.5066 18.7203 11.5694 23.1379 9.08695 28.7992L10.0028 29.2008C12.4853 23.5395 14.4224 19.1219 16.3596 14.7042C18.2968 10.2865 20.2339 5.86886 22.7164 0.207582L21.8006 -0.194008ZM27.0749 8.32209L27.0717 8.31445L26.1503 8.70305L26.1535 8.7107L27.0749 8.32209ZM27.0561 8.2809L22.7036 -0.221061L21.8134 0.234635L26.1659 8.7366L27.0561 8.2809ZM26.1568 8.31445L26.1535 8.32209L27.0749 8.7107L27.0782 8.70305L26.1568 8.31445ZM22.7164 0.207545L22.7194 0.200758L21.8036 -0.200758L21.8006 -0.193971L22.7164 0.207545ZM76.7271 23.9576L75.9861 22.7238L75.1288 23.2386L75.8698 24.4724L76.7271 23.9576ZM75.1293 22.723L74.3853 23.9568L75.2416 24.4732L75.9857 23.2394L75.1293 22.723ZM76.245 24.8446L75.705 25.7423L76.5619 26.2577L77.1019 25.3601L76.245 24.8446ZM75.2269 25.7423L74.6719 24.8197L73.815 25.3351L74.37 26.2577L75.2269 25.7423ZM76.1734 24.53V25.1023H77.1734V24.53H76.1734ZM74.7434 25.0774V24.53H73.7434V25.0774H74.7434ZM49.6901 28.82H48.6901V29.82H49.6901V28.82ZM49.6901 18.32V17.32H48.6901V18.32H49.6901ZM52.1201 18.32H53.1201V17.32H52.1201V18.32ZM52.1201 28.82V29.82H53.1201V28.82H52.1201ZM54.6119 28.82H53.6119V29.82H54.6119V28.82ZM54.6119 18.32V17.32H53.6119V18.32H54.6119ZM57.0419 18.32H58.0419V17.32H57.0419V18.32ZM57.0419 26.84H56.0419V27.84H57.0419V26.84ZM62.3069 26.84H63.3069V25.84H62.3069V26.84ZM62.3069 28.82V29.82H63.3069V28.82H62.3069ZM63.6647 28.82H62.6647V29.82H63.6647V28.82ZM63.6647 18.32V17.32H62.6647V18.32H63.6647ZM66.0947 18.32H67.0947V17.32H66.0947V18.32ZM66.0947 26.84H65.0947V27.84H66.0947V26.84ZM71.3597 26.84H72.3597V25.84H71.3597V26.84ZM71.3597 28.82V29.82H72.3597V28.82H71.3597ZM74.2434 28.82H73.2434V29.82H74.2434V28.82ZM70.1784 18.32V17.32H68.4099L69.3215 18.8355L70.1784 18.32ZM72.7584 18.32L73.6157 17.8052L73.3244 17.32H72.7584V18.32ZM78.3684 18.32V17.32H77.8037L77.5121 17.8036L78.3684 18.32ZM80.7534 18.32L81.6103 18.8355L82.522 17.32H80.7534V18.32ZM76.6734 28.82V29.82H77.6734V28.82H76.6734ZM102.605 22.55H103.605V21.55H102.605V22.55ZM102.605 24.44V25.44H103.605V24.44H102.605ZM84.0973 26.87H83.0973V27.87H84.0973V26.87ZM103.445 26.87H104.445V25.87H103.445V26.87ZM103.445 28.82V29.82H104.445V28.82H103.445ZM81.6823 28.82H80.6823V29.82H81.6823V28.82ZM81.6823 18.32V17.32H80.6823V18.32H81.6823ZM103.25 18.32H104.25V17.32H103.25V18.32ZM103.25 20.27V21.27H104.25V20.27H103.25ZM84.0973 20.27V19.27H83.0973V20.27H84.0973ZM106.075 28.67L105.789 29.6282L105.8 29.6315L106.075 28.67ZM104.215 27.785L103.303 27.374L102.978 28.0968L103.607 28.5789L104.215 27.785ZM105.04 25.955L105.62 25.14L104.628 24.4351L104.128 25.544L105.04 25.955ZM106.63 26.75L106.305 27.6955L106.314 27.6987L106.323 27.7017L106.63 26.75ZM109.66 26.915L109.956 27.8701L109.966 27.867L109.976 27.8637L109.66 26.915ZM110.32 26.51L109.548 25.8743L110.32 26.51ZM110.2 25.265L109.589 26.0563L109.6 26.0652L109.612 26.0737L110.2 25.265ZM109.33 24.86L109.038 25.8164L109.05 25.8201L109.062 25.8235L109.33 24.86ZM108.13 24.56L107.904 25.534L107.917 25.537L107.93 25.5397L108.13 24.56ZM106.825 24.2L106.515 25.1509L106.522 25.1529L106.825 24.2ZM105.64 23.66L105.119 24.5133L105.119 24.5133L105.64 23.66ZM104.755 22.79L103.902 23.3114L103.907 23.32L103.912 23.3284L104.755 22.79ZM104.905 19.775L104.07 19.2242L104.068 19.2282L104.905 19.775ZM106.375 18.59L106.783 19.5033L106.789 19.5004L106.375 18.59ZM110.8 18.38L110.558 19.3501L110.565 19.3519L110.572 19.3536L110.8 18.38ZM112.495 19.07L113.421 19.4466L113.736 18.672L113.03 18.2249L112.495 19.07ZM111.745 20.915L111.249 21.7832L112.241 22.3502L112.671 21.2916L111.745 20.915ZM110.275 20.3L110 21.2615L110.009 21.2641L110.019 21.2666L110.275 20.3ZM107.68 20.255L107.336 19.3161V19.3161L107.68 20.255ZM107.035 20.69L107.829 21.2974L107.838 21.2866L107.846 21.2755L107.035 20.69ZM107.17 21.95L106.559 22.7413L106.57 22.7502L106.582 22.7587L107.17 21.95ZM108.04 22.34L107.772 23.3035L108.04 22.34ZM109.225 22.64L108.999 23.614L109.003 23.6151L109.225 22.64ZM110.53 22.985L110.241 23.9422L110.247 23.944L110.53 22.985ZM111.73 23.51L112.252 22.6567L111.73 23.51ZM112.6 24.38L111.747 24.9014L111.752 24.91L111.757 24.9184L112.6 24.38ZM112.45 27.365L113.28 27.9236L112.45 27.365ZM110.965 28.55L110.551 27.6396L110.546 27.642L110.965 28.55ZM9.54486 29L8.62904 28.5984L8.01444 30H9.54486V29ZM17.9758 29V30H18.6393L18.8972 29.3886L17.9758 29ZM1.69005 28.1029L0.987416 28.8144L1.00011 28.8269L1.01325 28.839L1.69005 28.1029ZM1.69005 23.9306L2.36589 24.6677L2.36686 24.6668L1.69005 23.9306ZM5.85481 23.9306L5.16522 24.6548L5.17203 24.6613L5.17897 24.6677L5.85481 23.9306ZM5.85481 28.1029L6.5444 28.8271L6.55098 28.8208L6.55745 28.8144L5.85481 28.1029ZM22.255 0V-1H20.6195L21.3649 0.455765L22.255 0ZM31.0372 0L31.9539 -0.399728L31.6921 -1H31.0372V0ZM43.6836 29V30H45.2106L44.6002 28.6003L43.6836 29ZM35.2527 29L34.3313 29.3886L34.5891 30H35.2527V29ZM84.0973 22.55H83.0973V23.55H84.0973V22.55ZM84.0973 24.44V23.44H83.0973V24.44H84.0973ZM22.2585 0.00678698L23.1743 0.408378L23.365 -0.0264051L23.1486 -0.448978L22.2585 0.00678698ZM26.6142 8.51639L27.5356 8.12781L26.6142 5.94295L25.6928 8.12781L26.6142 8.51639ZM74.2434 25.0774H75.2434V24.7998L75.1003 24.5619L74.2434 25.0774ZM76.6734 25.1023L75.8165 24.5869L75.6734 24.8247V25.1023H76.6734ZM75.5575 22.9812L74.7002 23.496L75.5557 24.9206L76.4138 23.4976L75.5575 22.9812ZM50.6901 28.82V18.32H48.6901V28.82H50.6901ZM49.6901 19.32H52.1201V17.32H49.6901V19.32ZM51.1201 18.32V28.82H53.1201V18.32H51.1201ZM52.1201 27.82H49.6901V29.82H52.1201V27.82ZM55.6119 28.82V18.32H53.6119V28.82H55.6119ZM54.6119 19.32H57.0419V17.32H54.6119V19.32ZM56.0419 18.32V26.84H58.0419V18.32H56.0419ZM57.0419 27.84H62.3069V25.84H57.0419V27.84ZM61.3069 26.84V28.82H63.3069V26.84H61.3069ZM62.3069 27.82H54.6119V29.82H62.3069V27.82ZM64.6647 28.82V18.32H62.6647V28.82H64.6647ZM63.6647 19.32H66.0947V17.32H63.6647V19.32ZM65.0947 18.32V26.84H67.0947V18.32H65.0947ZM66.0947 27.84H71.3597V25.84H66.0947V27.84ZM70.3597 26.84V28.82H72.3597V26.84H70.3597ZM71.3597 27.82H63.6647V29.82H71.3597V27.82ZM70.1784 19.32H72.7584V17.32H70.1784V19.32ZM78.3684 19.32H80.7534V17.32H78.3684V19.32ZM76.6734 27.82H74.2434V29.82H76.6734V27.82ZM101.605 22.55V24.44H103.605V22.55H101.605ZM84.0973 27.87H103.445V25.87H84.0973V27.87ZM102.445 26.87V28.82H104.445V26.87H102.445ZM103.445 27.82H81.6823V29.82H103.445V27.82ZM82.6823 28.82V18.32H80.6823V28.82H82.6823ZM81.6823 19.32H103.25V17.32H81.6823V19.32ZM102.25 18.32V20.27H104.25V18.32H102.25ZM103.25 19.27H84.0973V21.27H103.25V19.27ZM108.49 28C107.738 28 107.026 27.9017 106.35 27.7085L105.8 29.6315C106.664 29.8783 107.562 30 108.49 30V28ZM106.361 27.7118C105.669 27.505 105.169 27.2561 104.823 26.9911L103.607 28.5789C104.201 29.0339 104.941 29.375 105.789 29.6282L106.361 27.7118ZM105.127 28.196L105.952 26.366L104.128 25.544L103.303 27.374L105.127 28.196ZM104.461 26.77C105 27.1538 105.619 27.4595 106.305 27.6955L106.956 25.8045C106.421 25.6205 105.98 25.3962 105.62 25.14L104.461 26.77ZM106.323 27.7017C107.039 27.9326 107.767 28.05 108.505 28.05V26.05C107.983 26.05 107.461 25.9674 106.937 25.7983L106.323 27.7017ZM108.505 28.05C109.034 28.05 109.532 28.0019 109.956 27.8701L109.364 25.9599C109.209 26.0081 108.936 26.05 108.505 26.05V28.05ZM109.976 27.8637C110.381 27.7288 110.791 27.5109 111.092 27.1457L109.548 25.8743C109.569 25.8491 109.539 25.9012 109.344 25.9663L109.976 27.8637ZM111.092 27.1457C111.379 26.7969 111.53 26.3772 111.53 25.925H109.53C109.53 25.9268 109.53 25.9245 109.531 25.919C109.532 25.9134 109.534 25.9062 109.536 25.8984C109.539 25.8905 109.542 25.8839 109.545 25.8791C109.548 25.8744 109.549 25.8728 109.548 25.8743L111.092 27.1457ZM111.53 25.925C111.53 25.3361 111.276 24.8109 110.788 24.4563L109.612 26.0737C109.606 26.0697 109.577 26.0452 109.553 25.9972C109.53 25.9503 109.53 25.9186 109.53 25.925H111.53ZM110.812 24.4737C110.461 24.2025 110.042 24.0199 109.598 23.8965L109.062 25.8235C109.338 25.9001 109.5 25.9875 109.589 26.0563L110.812 24.4737ZM109.622 23.9036C109.227 23.7829 108.796 23.6755 108.33 23.5803L107.93 25.5397C108.344 25.6245 108.713 25.7171 109.038 25.8164L109.622 23.9036ZM108.357 23.586C107.954 23.4923 107.544 23.3794 107.128 23.2471L106.522 25.1529C106.986 25.3006 107.447 25.4277 107.904 25.534L108.357 23.586ZM107.135 23.2491C106.774 23.1316 106.45 22.9832 106.162 22.8067L105.119 24.5133C105.55 24.7768 106.017 24.9884 106.515 25.1509L107.135 23.2491ZM106.162 22.8067C105.933 22.667 105.747 22.4853 105.598 22.2516L103.912 23.3284C104.223 23.8147 104.627 24.213 105.119 24.5133L106.162 22.8067ZM105.608 22.2685C105.511 22.109 105.425 21.8446 105.425 21.41H103.425C103.425 22.0954 103.559 22.751 103.902 23.3114L105.608 22.2685ZM105.425 21.41C105.425 20.999 105.531 20.6449 105.742 20.3218L104.068 19.2282C103.639 19.8851 103.425 20.621 103.425 21.41H105.425ZM105.74 20.3258C105.946 20.0127 106.273 19.7304 106.783 19.5032L105.968 17.6768C105.177 18.0296 104.524 18.5373 104.07 19.2242L105.74 20.3258ZM106.789 19.5004C107.281 19.2769 107.954 19.14 108.85 19.14V17.14C107.766 17.14 106.79 17.3031 105.961 17.6796L106.789 19.5004ZM108.85 19.14C109.428 19.14 109.997 19.21 110.558 19.3501L111.043 17.4099C110.323 17.23 109.592 17.14 108.85 17.14V19.14ZM110.572 19.3536C111.118 19.4815 111.576 19.6721 111.96 19.9151L113.03 18.2249C112.434 17.8479 111.763 17.5785 111.028 17.4064L110.572 19.3536ZM111.569 18.6934L110.819 20.5384L112.671 21.2916L113.421 19.4466L111.569 18.6934ZM112.241 20.0468C111.684 19.7285 111.114 19.488 110.531 19.3334L110.019 21.2666C110.416 21.372 110.826 21.5415 111.249 21.7832L112.241 20.0468ZM110.55 19.3385C109.978 19.1751 109.405 19.09 108.835 19.09V21.09C109.205 21.09 109.592 21.1449 110 21.2615L110.55 19.3385ZM108.835 19.09C108.298 19.09 107.785 19.1514 107.336 19.3161L108.024 21.1939C108.175 21.1386 108.432 21.09 108.835 21.09V19.09ZM107.336 19.3161C106.927 19.466 106.512 19.7063 106.224 20.1045L107.846 21.2755C107.831 21.2954 107.827 21.2929 107.853 21.2753C107.88 21.257 107.933 21.2272 108.024 21.1939L107.336 19.3161ZM106.241 20.0826C105.967 20.4404 105.84 20.8579 105.84 21.29H107.84C107.84 21.2797 107.841 21.2741 107.841 21.2726C107.841 21.2712 107.841 21.2728 107.84 21.2766C107.839 21.2805 107.837 21.2849 107.834 21.2894C107.832 21.2938 107.83 21.2965 107.829 21.2974L106.241 20.0826ZM105.84 21.29C105.84 21.8803 106.102 22.3885 106.559 22.7413L107.782 21.1587C107.775 21.1536 107.796 21.1692 107.817 21.2103C107.838 21.2523 107.84 21.2852 107.84 21.29H105.84ZM106.582 22.7587C106.927 23.01 107.337 23.1826 107.772 23.3035L108.308 21.3765C108.023 21.2974 107.853 21.21 107.758 21.1413L106.582 22.7587ZM107.772 23.3035C108.148 23.4079 108.557 23.5114 108.999 23.614L109.452 21.666C109.033 21.5686 108.652 21.4721 108.308 21.3765L107.772 23.3035ZM109.003 23.6151C109.421 23.71 109.833 23.819 110.241 23.9422L110.819 22.0278C110.367 21.891 109.909 21.77 109.447 21.6649L109.003 23.6151ZM110.247 23.944C110.61 24.0514 110.929 24.1925 111.209 24.3633L112.252 22.6567C111.811 22.3875 111.33 22.1786 110.813 22.026L110.247 23.944ZM111.209 24.3633C111.433 24.5006 111.61 24.6768 111.747 24.9014L113.453 23.8585C113.151 23.3632 112.747 22.9594 112.252 22.6567L111.209 24.3633ZM111.757 24.9184C111.859 25.0773 111.945 25.3316 111.945 25.745H113.945C113.945 25.0584 113.801 24.4027 113.443 23.8416L111.757 24.9184ZM111.945 25.745C111.945 26.1357 111.84 26.4813 111.621 26.8064L113.28 27.9236C113.721 27.2687 113.945 26.5343 113.945 25.745H111.945ZM111.621 26.8064C111.415 27.1115 111.081 27.3988 110.551 27.6396L111.379 29.4604C112.169 29.1012 112.825 28.5985 113.28 27.9236L111.621 26.8064ZM110.546 27.642C110.069 27.8623 109.399 28 108.49 28V30C109.581 30 110.561 29.8377 111.384 29.458L110.546 27.642ZM17.9758 28H9.54486V30H17.9758V28ZM3.77243 27.9075C3.21407 27.9075 2.76265 27.7306 2.36686 27.3667L1.01325 28.839C1.78439 29.548 2.72123 29.9075 3.77243 29.9075V27.9075ZM2.39269 27.3913C2.03564 27.0387 1.84503 26.5972 1.84503 25.9869H-0.154968C-0.154968 27.0853 0.217774 28.0544 0.987416 28.8144L2.39269 27.3913ZM1.84503 25.9869C1.84503 25.3763 2.03462 24.9715 2.36589 24.6677L1.01422 23.1936C0.218796 23.9229 -0.154968 24.889 -0.154968 25.9869H1.84503ZM2.36686 24.6668C2.76265 24.3029 3.21407 24.126 3.77243 24.126V22.126C2.72123 22.126 1.78439 22.4855 1.01325 23.1945L2.36686 24.6668ZM3.77243 24.126C4.35768 24.126 4.79982 24.3069 5.16522 24.6548L6.5444 23.2064C5.7831 22.4815 4.83699 22.126 3.77243 22.126V24.126ZM5.17897 24.6677C5.51025 24.9715 5.69983 25.3763 5.69983 25.9869H7.69983C7.69983 24.889 7.32607 23.9229 6.53065 23.1936L5.17897 24.6677ZM5.69983 25.9869C5.69983 26.5972 5.50923 27.0387 5.15217 27.3913L6.55745 28.8144C7.32709 28.0544 7.69983 27.0853 7.69983 25.9869H5.69983ZM5.16522 27.3787C4.79982 27.7266 4.35768 27.9075 3.77243 27.9075V29.9075C4.83699 29.9075 5.7831 29.552 6.5444 28.8271L5.16522 27.3787ZM22.255 1H31.0372V-1H22.255V1ZM30.1206 0.399728L42.767 29.3997L44.6002 28.6003L31.9539 -0.399728L30.1206 0.399728ZM43.6836 28H35.2527V30H43.6836V28ZM102.605 21.55H84.0973V23.55H102.605V21.55ZM85.0973 22.55V20.27H83.0973V22.55H85.0973ZM85.0973 26.87V24.44H83.0973V26.87H85.0973ZM84.0973 25.44H102.605V23.44H84.0973V25.44ZM18.8972 29.3886L27.5356 8.90498L25.6928 8.12781L17.0544 28.6114L18.8972 29.3886ZM36.1741 28.6114L27.5356 8.12781L25.6928 8.90498L34.3313 29.3886L36.1741 28.6114ZM21.3649 0.455765L21.3684 0.462552L23.1486 -0.448978L23.1451 -0.455765L21.3649 0.455765ZM21.3427 -0.394804L8.62904 28.5984L10.4607 29.4016L23.1743 0.408378L21.3427 -0.394804ZM73.2434 25.0774V28.82H75.2434V25.0774H73.2434ZM77.6734 28.82V25.1023H75.6734V28.82H77.6734ZM77.5303 25.6178L81.6103 18.8355L79.8965 17.8045L75.8165 24.5869L77.5303 25.6178ZM77.5121 17.8036L74.7012 22.4647L76.4138 23.4976L79.2248 18.8364L77.5121 17.8036ZM76.4148 22.4663L73.6157 17.8052L71.9011 18.8348L74.7002 23.496L76.4148 22.4663ZM69.3215 18.8355L73.3865 25.5929L75.1003 24.5619L71.0353 17.8045L69.3215 18.8355Z" fill="white" mask="url(#path-1-inside-1_3_5)"/>
</svg>
